<mxfile host="app.diagrams.net" modified="2022-01-11T08:48:16.898Z" agent="5.0 (Windows NT 10.0; Win64; x64) AppleWebKit/537.36 (KHTML, like Gecko) Chrome/90.0.4430.212 Safari/537.36" etag="lHCWTeL9U4ue2s8Q0eg-" version="16.0.0" type="github">
  <diagram id="I6laQo5OcxD0GlsFnyBt" name="Page-1">
    <mxGraphModel dx="1752" dy="1681" grid="1" gridSize="10" guides="1" tooltips="1" connect="1" arrows="1" fold="1" page="1" pageScale="1" pageWidth="827" pageHeight="1169" math="0" shadow="0">
      <root>
        <mxCell id="0" />
        <mxCell id="1" parent="0" />
        <mxCell id="8u_VZTrY__dgG8JKs_0e-1" value="" style="rounded=0;whiteSpace=wrap;html=1;fillColor=#f9f7ed;strokeColor=#36393d;" vertex="1" parent="1">
          <mxGeometry x="-120" y="-60" width="720" height="710" as="geometry" />
        </mxCell>
        <mxCell id="8u_VZTrY__dgG8JKs_0e-2" value="客户端" style="rounded=0;whiteSpace=wrap;html=1;fillColor=#b0e3e6;strokeColor=#0e8088;" vertex="1" parent="1">
          <mxGeometry x="-110" y="-10" width="90" height="60" as="geometry" />
        </mxCell>
        <mxCell id="8u_VZTrY__dgG8JKs_0e-3" value="网络层" style="rounded=0;whiteSpace=wrap;html=1;fillColor=#fad7ac;strokeColor=#b46504;" vertex="1" parent="1">
          <mxGeometry x="-110" y="60" width="90" height="40" as="geometry" />
        </mxCell>
        <mxCell id="8u_VZTrY__dgG8JKs_0e-4" value="应用层" style="rounded=0;whiteSpace=wrap;html=1;fillColor=#b1ddf0;strokeColor=#10739e;" vertex="1" parent="1">
          <mxGeometry x="-110" y="140" width="90" height="100" as="geometry" />
        </mxCell>
        <mxCell id="8u_VZTrY__dgG8JKs_0e-5" value="持久层" style="rounded=0;whiteSpace=wrap;html=1;fillColor=#cce5ff;strokeColor=#36393d;" vertex="1" parent="1">
          <mxGeometry x="-110" y="460" width="90" height="40" as="geometry" />
        </mxCell>
        <mxCell id="8u_VZTrY__dgG8JKs_0e-6" value="支持层" style="rounded=0;whiteSpace=wrap;html=1;fillColor=#ffcc99;strokeColor=#36393d;" vertex="1" parent="1">
          <mxGeometry x="-110" y="540" width="90" height="50" as="geometry" />
        </mxCell>
        <mxCell id="8u_VZTrY__dgG8JKs_0e-7" value="" style="rounded=0;whiteSpace=wrap;html=1;fillColor=#eeeeee;strokeColor=#36393d;" vertex="1" parent="1">
          <mxGeometry x="510" y="60" width="80" height="580" as="geometry" />
        </mxCell>
        <mxCell id="8u_VZTrY__dgG8JKs_0e-8" value="设施层" style="rounded=0;whiteSpace=wrap;html=1;fillColor=#e1d5e7;strokeColor=#9673a6;" vertex="1" parent="1">
          <mxGeometry x="-110" y="600" width="90" height="40" as="geometry" />
        </mxCell>
        <mxCell id="8u_VZTrY__dgG8JKs_0e-9" value="传输层" style="rounded=0;whiteSpace=wrap;html=1;fillColor=#d5e8d4;strokeColor=#82b366;" vertex="1" parent="1">
          <mxGeometry x="-110" y="510" width="90" height="20" as="geometry" />
        </mxCell>
        <mxCell id="8u_VZTrY__dgG8JKs_0e-10" value="" style="rounded=0;whiteSpace=wrap;html=1;fillColor=#b0e3e6;strokeColor=#0e8088;" vertex="1" parent="1">
          <mxGeometry x="-10" y="-10" width="600" height="60" as="geometry" />
        </mxCell>
        <mxCell id="8u_VZTrY__dgG8JKs_0e-11" value="" style="rounded=0;whiteSpace=wrap;html=1;fillColor=#fad7ac;strokeColor=#b46504;" vertex="1" parent="1">
          <mxGeometry x="-10" y="60" width="510" height="40" as="geometry" />
        </mxCell>
        <mxCell id="8u_VZTrY__dgG8JKs_0e-12" value="" style="rounded=0;whiteSpace=wrap;html=1;fillColor=#fad9d5;strokeColor=#ae4132;" vertex="1" parent="1">
          <mxGeometry x="-10" y="140" width="510" height="310" as="geometry" />
        </mxCell>
        <mxCell id="8u_VZTrY__dgG8JKs_0e-13" value="" style="rounded=0;whiteSpace=wrap;html=1;fillColor=#b1ddf0;strokeColor=#10739e;" vertex="1" parent="1">
          <mxGeometry x="30" y="150" width="460" height="60" as="geometry" />
        </mxCell>
        <mxCell id="8u_VZTrY__dgG8JKs_0e-14" value="" style="rounded=0;whiteSpace=wrap;html=1;fillColor=#ffe6cc;strokeColor=#d79b00;" vertex="1" parent="1">
          <mxGeometry x="30" y="250" width="460" height="160" as="geometry" />
        </mxCell>
        <mxCell id="8u_VZTrY__dgG8JKs_0e-15" value="" style="rounded=0;whiteSpace=wrap;html=1;gradientColor=#97d077;fillColor=#d5e8d4;strokeColor=#82b366;" vertex="1" parent="1">
          <mxGeometry x="30" y="220" width="460" height="20" as="geometry" />
        </mxCell>
        <mxCell id="8u_VZTrY__dgG8JKs_0e-16" value="" style="rounded=0;whiteSpace=wrap;html=1;fillColor=#fff2cc;strokeColor=#d6b656;gradientColor=#ffd966;" vertex="1" parent="1">
          <mxGeometry y="420" width="490" height="20" as="geometry" />
        </mxCell>
        <mxCell id="8u_VZTrY__dgG8JKs_0e-17" value="" style="rounded=0;whiteSpace=wrap;html=1;fillColor=#cce5ff;strokeColor=#36393d;" vertex="1" parent="1">
          <mxGeometry x="-10" y="460" width="510" height="40" as="geometry" />
        </mxCell>
        <mxCell id="8u_VZTrY__dgG8JKs_0e-18" value="" style="rounded=0;whiteSpace=wrap;html=1;fillColor=#d5e8d4;strokeColor=#82b366;" vertex="1" parent="1">
          <mxGeometry x="-10" y="510" width="510" height="20" as="geometry" />
        </mxCell>
        <mxCell id="8u_VZTrY__dgG8JKs_0e-19" value="" style="rounded=0;whiteSpace=wrap;html=1;fillColor=#ffcc99;strokeColor=#36393d;" vertex="1" parent="1">
          <mxGeometry x="-10" y="540" width="510" height="50" as="geometry" />
        </mxCell>
        <mxCell id="8u_VZTrY__dgG8JKs_0e-20" value="" style="rounded=0;whiteSpace=wrap;html=1;fillColor=#e1d5e7;strokeColor=#9673a6;" vertex="1" parent="1">
          <mxGeometry x="-10" y="600" width="510" height="40" as="geometry" />
        </mxCell>
        <mxCell id="8u_VZTrY__dgG8JKs_0e-21" value="" style="rounded=0;whiteSpace=wrap;html=1;fillColor=#fff2cc;strokeColor=#d6b656;" vertex="1" parent="1">
          <mxGeometry y="150" width="20" height="260" as="geometry" />
        </mxCell>
        <mxCell id="8u_VZTrY__dgG8JKs_0e-22" value="运维管理" style="text;html=1;strokeColor=none;fillColor=none;align=center;verticalAlign=middle;whiteSpace=wrap;rounded=0;" vertex="1" parent="1">
          <mxGeometry x="520" y="70" width="60" height="20" as="geometry" />
        </mxCell>
        <mxCell id="8u_VZTrY__dgG8JKs_0e-23" value="" style="rounded=0;whiteSpace=wrap;html=1;fillColor=#bac8d3;strokeColor=#23445d;" vertex="1" parent="1">
          <mxGeometry x="-10" y="110" width="510" height="20" as="geometry" />
        </mxCell>
        <mxCell id="8u_VZTrY__dgG8JKs_0e-24" value="模型层" style="text;html=1;strokeColor=none;fillColor=none;align=center;verticalAlign=middle;whiteSpace=wrap;rounded=0;" vertex="1" parent="1">
          <mxGeometry y="420" width="60" height="20" as="geometry" />
        </mxCell>
        <mxCell id="8u_VZTrY__dgG8JKs_0e-25" value="鉴权层" style="rounded=0;whiteSpace=wrap;html=1;fillColor=#bac8d3;strokeColor=#23445d;" vertex="1" parent="1">
          <mxGeometry x="-110" y="110" width="90" height="20" as="geometry" />
        </mxCell>
        <mxCell id="8u_VZTrY__dgG8JKs_0e-26" value="能力层" style="rounded=0;whiteSpace=wrap;html=1;fillColor=#f8cecc;strokeColor=#b85450;" vertex="1" parent="1">
          <mxGeometry x="-110" y="250" width="90" height="200" as="geometry" />
        </mxCell>
        <mxCell id="8u_VZTrY__dgG8JKs_0e-27" value="通用组件" style="text;html=1;strokeColor=none;fillColor=none;align=center;verticalAlign=middle;whiteSpace=wrap;rounded=0;" vertex="1" parent="1">
          <mxGeometry y="222" width="20" height="105" as="geometry" />
        </mxCell>
        <mxCell id="8u_VZTrY__dgG8JKs_0e-28" value="业务应用" style="text;html=1;strokeColor=none;fillColor=none;align=center;verticalAlign=middle;whiteSpace=wrap;rounded=0;" vertex="1" parent="1">
          <mxGeometry x="35" y="190" width="57" height="20" as="geometry" />
        </mxCell>
        <mxCell id="8u_VZTrY__dgG8JKs_0e-29" value="核心服务" style="text;html=1;strokeColor=none;fillColor=none;align=center;verticalAlign=middle;whiteSpace=wrap;rounded=0;" vertex="1" parent="1">
          <mxGeometry x="30" y="250" width="70" height="20" as="geometry" />
        </mxCell>
        <mxCell id="8u_VZTrY__dgG8JKs_0e-30" value="服务调用" style="text;html=1;strokeColor=none;fillColor=none;align=center;verticalAlign=middle;whiteSpace=wrap;rounded=0;" vertex="1" parent="1">
          <mxGeometry x="35" y="220" width="60" height="20" as="geometry" />
        </mxCell>
        <mxCell id="8u_VZTrY__dgG8JKs_0e-31" value="" style="dashed=0;outlineConnect=0;html=1;align=center;labelPosition=center;verticalLabelPosition=bottom;verticalAlign=top;shape=mxgraph.weblogos.github" vertex="1" parent="1">
          <mxGeometry x="527.5" y="105" width="45" height="45" as="geometry" />
        </mxCell>
        <mxCell id="8u_VZTrY__dgG8JKs_0e-32" value="" style="aspect=fixed;html=1;points=[];align=center;image;fontSize=12;image=img/lib/mscae/Docker.svg;" vertex="1" parent="1">
          <mxGeometry x="525" y="220" width="50" height="41" as="geometry" />
        </mxCell>
        <mxCell id="8u_VZTrY__dgG8JKs_0e-33" value="" style="aspect=fixed;html=1;points=[];align=center;image;fontSize=12;image=img/lib/mscae/VM_Linux.svg;" vertex="1" parent="1">
          <mxGeometry x="522.5" y="327" width="50" height="46" as="geometry" />
        </mxCell>
        <mxCell id="8u_VZTrY__dgG8JKs_0e-34" value="&lt;b&gt;&lt;font style=&quot;font-size: 18px&quot;&gt;教务学管TTS应用架构图&lt;/font&gt;&lt;/b&gt;" style="text;html=1;strokeColor=none;fillColor=none;align=center;verticalAlign=middle;whiteSpace=wrap;rounded=0;" vertex="1" parent="1">
          <mxGeometry x="125" y="-50" width="240" height="30" as="geometry" />
        </mxCell>
        <mxCell id="8u_VZTrY__dgG8JKs_0e-35" value="认证" style="rounded=1;whiteSpace=wrap;html=1;fillColor=#647687;strokeColor=#314354;fontColor=#ffffff;" vertex="1" parent="1">
          <mxGeometry x="192.5" y="110" width="55" height="20" as="geometry" />
        </mxCell>
        <mxCell id="8u_VZTrY__dgG8JKs_0e-36" value="授权" style="rounded=1;whiteSpace=wrap;html=1;fillColor=#647687;strokeColor=#314354;fontColor=#ffffff;" vertex="1" parent="1">
          <mxGeometry x="302.95" y="110" width="55" height="20" as="geometry" />
        </mxCell>
        <mxCell id="8u_VZTrY__dgG8JKs_0e-37" value="登录" style="rounded=1;whiteSpace=wrap;html=1;fillColor=#647687;strokeColor=#314354;fontColor=#ffffff;" vertex="1" parent="1">
          <mxGeometry x="75" y="110" width="55" height="20" as="geometry" />
        </mxCell>
        <mxCell id="8u_VZTrY__dgG8JKs_0e-38" value="其他" style="rounded=1;whiteSpace=wrap;html=1;fillColor=#647687;strokeColor=#314354;fontColor=#ffffff;" vertex="1" parent="1">
          <mxGeometry x="415" y="111.25" width="55" height="20" as="geometry" />
        </mxCell>
        <mxCell id="8u_VZTrY__dgG8JKs_0e-39" value="GIT代码仓库" style="text;html=1;strokeColor=none;fillColor=none;align=center;verticalAlign=middle;whiteSpace=wrap;rounded=0;" vertex="1" parent="1">
          <mxGeometry x="510" y="160" width="80" height="20" as="geometry" />
        </mxCell>
        <mxCell id="8u_VZTrY__dgG8JKs_0e-40" value="Docker容器" style="text;html=1;strokeColor=none;fillColor=none;align=center;verticalAlign=middle;whiteSpace=wrap;rounded=0;" vertex="1" parent="1">
          <mxGeometry x="510" y="270" width="80" height="20" as="geometry" />
        </mxCell>
        <mxCell id="8u_VZTrY__dgG8JKs_0e-41" value="Linux系统" style="text;html=1;strokeColor=none;fillColor=none;align=center;verticalAlign=middle;whiteSpace=wrap;rounded=0;" vertex="1" parent="1">
          <mxGeometry x="507.5" y="380" width="80" height="20" as="geometry" />
        </mxCell>
        <mxCell id="8u_VZTrY__dgG8JKs_0e-42" value="" style="aspect=fixed;html=1;points=[];align=center;image;fontSize=12;image=img/lib/mscae/Developer_Tools.svg;" vertex="1" parent="1">
          <mxGeometry x="1.1999999999999886" y="160" width="18.8" height="20" as="geometry" />
        </mxCell>
        <mxCell id="8u_VZTrY__dgG8JKs_0e-43" value="系统检测" style="text;html=1;strokeColor=none;fillColor=none;align=center;verticalAlign=middle;whiteSpace=wrap;rounded=0;" vertex="1" parent="1">
          <mxGeometry x="510" y="610" width="80" height="20" as="geometry" />
        </mxCell>
        <mxCell id="8u_VZTrY__dgG8JKs_0e-44" value="" style="aspect=fixed;html=1;points=[];align=center;image;fontSize=12;image=img/lib/mscae/Application_Security_Groups.svg;" vertex="1" parent="1">
          <mxGeometry x="3.35" y="108.75" width="16.65" height="22.5" as="geometry" />
        </mxCell>
        <mxCell id="8u_VZTrY__dgG8JKs_0e-45" value="" style="aspect=fixed;html=1;points=[];align=center;image;fontSize=12;image=img/lib/mscae/DNS.svg;" vertex="1" parent="1">
          <mxGeometry x="391.5" y="64" width="32" height="32" as="geometry" />
        </mxCell>
        <mxCell id="8u_VZTrY__dgG8JKs_0e-46" value="" style="aspect=fixed;html=1;points=[];align=center;image;fontSize=12;image=img/lib/mscae/Azure_Firewall.svg;" vertex="1" parent="1">
          <mxGeometry x="147" y="63.5" width="33" height="33" as="geometry" />
        </mxCell>
        <mxCell id="8u_VZTrY__dgG8JKs_0e-47" value="" style="aspect=fixed;html=1;points=[];align=center;image;fontSize=12;image=img/lib/mscae/Application_Gateway.svg;" vertex="1" parent="1">
          <mxGeometry x="20" y="66.5" width="32.5" height="32.5" as="geometry" />
        </mxCell>
        <mxCell id="8u_VZTrY__dgG8JKs_0e-48" value="" style="aspect=fixed;pointerEvents=1;shadow=0;dashed=0;html=1;strokeColor=none;labelPosition=center;verticalLabelPosition=bottom;verticalAlign=top;align=center;fillColor=#00188D;shape=mxgraph.mscae.enterprise.monitor_running_apps" vertex="1" parent="1">
          <mxGeometry x="522.5" y="440" width="51.28" height="40" as="geometry" />
        </mxCell>
        <mxCell id="8u_VZTrY__dgG8JKs_0e-49" value="日志分析" style="text;html=1;strokeColor=none;fillColor=none;align=center;verticalAlign=middle;whiteSpace=wrap;rounded=0;" vertex="1" parent="1">
          <mxGeometry x="512.5" y="490" width="80" height="20" as="geometry" />
        </mxCell>
        <mxCell id="8u_VZTrY__dgG8JKs_0e-50" value="" style="aspect=fixed;html=1;points=[];align=center;image;fontSize=12;image=img/lib/mscae/Cache_Redis_Product.svg;" vertex="1" parent="1">
          <mxGeometry x="135" y="470.01000000000005" width="25.22" height="21.18" as="geometry" />
        </mxCell>
        <mxCell id="8u_VZTrY__dgG8JKs_0e-51" value="" style="outlineConnect=0;dashed=0;verticalLabelPosition=bottom;verticalAlign=top;align=center;html=1;shape=mxgraph.aws3.mysql_db_instance;fillColor=#2E73B8;gradientColor=none;" vertex="1" parent="1">
          <mxGeometry x="10" y="471.43" width="20" height="20" as="geometry" />
        </mxCell>
        <mxCell id="8u_VZTrY__dgG8JKs_0e-52" value="" style="aspect=fixed;html=1;points=[];align=center;image;fontSize=12;image=img/lib/azure2/databases/Managed_Database.svg;" vertex="1" parent="1">
          <mxGeometry x="265" y="469.22" width="24.17" height="22.75" as="geometry" />
        </mxCell>
        <mxCell id="8u_VZTrY__dgG8JKs_0e-53" value="" style="aspect=fixed;html=1;points=[];align=center;image;fontSize=12;image=img/lib/azure2/general/Blob_Block.svg;" vertex="1" parent="1">
          <mxGeometry x="380.00000000000006" y="470.9" width="26.33" height="21.06" as="geometry" />
        </mxCell>
        <mxCell id="8u_VZTrY__dgG8JKs_0e-54" value="MySQL" style="rounded=1;whiteSpace=wrap;html=1;fillColor=#1ba1e2;strokeColor=#006EAF;fontColor=#ffffff;" vertex="1" parent="1">
          <mxGeometry x="52" y="470.9" width="40" height="20" as="geometry" />
        </mxCell>
        <mxCell id="8u_VZTrY__dgG8JKs_0e-55" value="Redis" style="rounded=1;whiteSpace=wrap;html=1;fillColor=#1ba1e2;strokeColor=#006EAF;fontColor=#ffffff;" vertex="1" parent="1">
          <mxGeometry x="185" y="471.43" width="40" height="20" as="geometry" />
        </mxCell>
        <mxCell id="8u_VZTrY__dgG8JKs_0e-56" value="Mybatis" style="rounded=1;whiteSpace=wrap;html=1;fillColor=#1ba1e2;strokeColor=#006EAF;fontColor=#ffffff;" vertex="1" parent="1">
          <mxGeometry x="302.95" y="468.03" width="45" height="22.87" as="geometry" />
        </mxCell>
        <mxCell id="8u_VZTrY__dgG8JKs_0e-57" value="PageHelper" style="rounded=1;whiteSpace=wrap;html=1;fillColor=#1ba1e2;strokeColor=#006EAF;fontColor=#ffffff;" vertex="1" parent="1">
          <mxGeometry x="420" y="469.1" width="65" height="22.99" as="geometry" />
        </mxCell>
        <mxCell id="8u_VZTrY__dgG8JKs_0e-58" value="" style="rounded=1;whiteSpace=wrap;html=1;fontStyle=1;fillColor=#fa6800;strokeColor=#C73500;fontColor=#ffffff;" vertex="1" parent="1">
          <mxGeometry x="40" y="270" width="90" height="60" as="geometry" />
        </mxCell>
        <mxCell id="8u_VZTrY__dgG8JKs_0e-59" value="教务管理应用" style="shape=document;whiteSpace=wrap;html=1;boundedLbl=1;fillColor=#1ba1e2;strokeColor=#006EAF;fontColor=#ffffff;" vertex="1" parent="1">
          <mxGeometry x="117" y="157.5" width="80" height="45" as="geometry" />
        </mxCell>
        <mxCell id="8u_VZTrY__dgG8JKs_0e-60" value="Domain" style="rounded=1;whiteSpace=wrap;html=1;fillColor=#f0a30a;strokeColor=#BD7000;fontColor=#ffffff;" vertex="1" parent="1">
          <mxGeometry x="92" y="420" width="60" height="20" as="geometry" />
        </mxCell>
        <mxCell id="8u_VZTrY__dgG8JKs_0e-61" value="PO" style="rounded=1;whiteSpace=wrap;html=1;fillColor=#f0a30a;strokeColor=#BD7000;fontColor=#ffffff;" vertex="1" parent="1">
          <mxGeometry x="202.5" y="420" width="60" height="20" as="geometry" />
        </mxCell>
        <mxCell id="8u_VZTrY__dgG8JKs_0e-62" value="Generator" style="rounded=1;whiteSpace=wrap;html=1;fillColor=#f0a30a;strokeColor=#BD7000;fontColor=#ffffff;" vertex="1" parent="1">
          <mxGeometry x="415" y="420" width="60" height="20" as="geometry" />
        </mxCell>
        <mxCell id="8u_VZTrY__dgG8JKs_0e-63" value="Mapper" style="rounded=1;whiteSpace=wrap;html=1;fillColor=#f0a30a;strokeColor=#BD7000;fontColor=#ffffff;" vertex="1" parent="1">
          <mxGeometry x="310" y="420" width="60" height="20" as="geometry" />
        </mxCell>
        <mxCell id="8u_VZTrY__dgG8JKs_0e-64" value="TTS教学应用" style="shape=document;whiteSpace=wrap;html=1;boundedLbl=1;fillColor=#1ba1e2;strokeColor=#006EAF;fontColor=#ffffff;" vertex="1" parent="1">
          <mxGeometry x="250" y="157.5" width="80" height="45" as="geometry" />
        </mxCell>
        <mxCell id="8u_VZTrY__dgG8JKs_0e-65" value="TTS学习应用" style="shape=document;whiteSpace=wrap;html=1;boundedLbl=1;fillColor=#1ba1e2;strokeColor=#006EAF;fontColor=#ffffff;" vertex="1" parent="1">
          <mxGeometry x="392.7" y="157.5" width="80" height="45" as="geometry" />
        </mxCell>
        <mxCell id="8u_VZTrY__dgG8JKs_0e-66" value="Fegin" style="rounded=1;whiteSpace=wrap;html=1;fillColor=#60a917;strokeColor=#2D7600;fontColor=#ffffff;" vertex="1" parent="1">
          <mxGeometry x="115" y="220" width="60" height="20" as="geometry" />
        </mxCell>
        <mxCell id="8u_VZTrY__dgG8JKs_0e-67" value="Dubbo" style="rounded=1;whiteSpace=wrap;html=1;fillColor=#60a917;strokeColor=#2D7600;fontColor=#ffffff;" vertex="1" parent="1">
          <mxGeometry x="215" y="220" width="60" height="20" as="geometry" />
        </mxCell>
        <mxCell id="8u_VZTrY__dgG8JKs_0e-68" value="MAVEN" style="rounded=1;whiteSpace=wrap;html=1;fillColor=#60a917;strokeColor=#2D7600;fontColor=#ffffff;" vertex="1" parent="1">
          <mxGeometry x="315" y="220" width="60" height="20" as="geometry" />
        </mxCell>
        <mxCell id="8u_VZTrY__dgG8JKs_0e-69" value="JAR" style="rounded=1;whiteSpace=wrap;html=1;fillColor=#60a917;strokeColor=#2D7600;fontColor=#ffffff;" vertex="1" parent="1">
          <mxGeometry x="415" y="220" width="60" height="20" as="geometry" />
        </mxCell>
        <mxCell id="8u_VZTrY__dgG8JKs_0e-70" value="Http" style="rounded=1;whiteSpace=wrap;html=1;fillColor=#60a917;strokeColor=#2D7600;fontColor=#ffffff;" vertex="1" parent="1">
          <mxGeometry x="75" y="510" width="60" height="20" as="geometry" />
        </mxCell>
        <mxCell id="8u_VZTrY__dgG8JKs_0e-71" value="Soap" style="rounded=1;whiteSpace=wrap;html=1;fillColor=#60a917;strokeColor=#2D7600;fontColor=#ffffff;" vertex="1" parent="1">
          <mxGeometry x="190" y="510" width="60" height="20" as="geometry" />
        </mxCell>
        <mxCell id="8u_VZTrY__dgG8JKs_0e-72" value="MQ" style="rounded=1;whiteSpace=wrap;html=1;fillColor=#60a917;strokeColor=#2D7600;fontColor=#ffffff;" vertex="1" parent="1">
          <mxGeometry x="295.45" y="510" width="60" height="20" as="geometry" />
        </mxCell>
        <mxCell id="8u_VZTrY__dgG8JKs_0e-73" value="Cache" style="rounded=1;whiteSpace=wrap;html=1;fillColor=#60a917;strokeColor=#2D7600;fontColor=#ffffff;" vertex="1" parent="1">
          <mxGeometry x="406.33" y="510" width="60" height="20" as="geometry" />
        </mxCell>
        <mxCell id="8u_VZTrY__dgG8JKs_0e-74" value="网关" style="text;html=1;strokeColor=none;fillColor=none;align=center;verticalAlign=middle;whiteSpace=wrap;rounded=0;" vertex="1" parent="1">
          <mxGeometry x="60" y="70" width="40" height="20" as="geometry" />
        </mxCell>
        <mxCell id="8u_VZTrY__dgG8JKs_0e-75" value="防火墙" style="text;html=1;strokeColor=none;fillColor=none;align=center;verticalAlign=middle;whiteSpace=wrap;rounded=0;" vertex="1" parent="1">
          <mxGeometry x="185" y="70" width="40" height="20" as="geometry" />
        </mxCell>
        <mxCell id="8u_VZTrY__dgG8JKs_0e-76" value="DNS" style="text;html=1;strokeColor=none;fillColor=none;align=center;verticalAlign=middle;whiteSpace=wrap;rounded=0;" vertex="1" parent="1">
          <mxGeometry x="432.5" y="70" width="40" height="20" as="geometry" />
        </mxCell>
        <mxCell id="8u_VZTrY__dgG8JKs_0e-77" value="" style="aspect=fixed;html=1;points=[];align=center;image;fontSize=12;image=img/lib/azure2/app_services/App_Services.svg;" vertex="1" parent="1">
          <mxGeometry x="47.5" y="158" width="32" height="32" as="geometry" />
        </mxCell>
        <mxCell id="8u_VZTrY__dgG8JKs_0e-78" value="" style="aspect=fixed;html=1;points=[];align=center;image;fontSize=12;image=img/lib/azure2/general/Service_Health.svg;" vertex="1" parent="1">
          <mxGeometry x="525" y="553" width="49.94" height="47" as="geometry" />
        </mxCell>
        <mxCell id="8u_VZTrY__dgG8JKs_0e-79" value="" style="aspect=fixed;html=1;points=[];align=center;image;fontSize=12;image=img/lib/azure2/general/Management_Groups.svg;" vertex="1" parent="1">
          <mxGeometry x="263.16999999999996" y="66.5" width="27.84" height="27" as="geometry" />
        </mxCell>
        <mxCell id="8u_VZTrY__dgG8JKs_0e-80" value="负载均衡" style="text;html=1;strokeColor=none;fillColor=none;align=center;verticalAlign=middle;whiteSpace=wrap;rounded=0;" vertex="1" parent="1">
          <mxGeometry x="295" y="70" width="55" height="20" as="geometry" />
        </mxCell>
        <mxCell id="8u_VZTrY__dgG8JKs_0e-81" value="能力" style="rounded=1;whiteSpace=wrap;html=1;fillColor=#e51400;strokeColor=#B20000;fontColor=#ffffff;" vertex="1" parent="1">
          <mxGeometry x="42.5" y="303.75" width="40" height="20" as="geometry" />
        </mxCell>
        <mxCell id="8u_VZTrY__dgG8JKs_0e-82" value="" style="aspect=fixed;pointerEvents=1;shadow=0;dashed=0;html=1;strokeColor=none;labelPosition=center;verticalLabelPosition=bottom;verticalAlign=top;align=center;fillColor=#00188D;shape=mxgraph.mscae.enterprise.usb" vertex="1" parent="1">
          <mxGeometry x="-1.74" y="515" width="21.74" height="10" as="geometry" />
        </mxCell>
        <mxCell id="8u_VZTrY__dgG8JKs_0e-83" value="总线" style="text;html=1;strokeColor=none;fillColor=none;align=center;verticalAlign=middle;whiteSpace=wrap;rounded=0;" vertex="1" parent="1">
          <mxGeometry x="11.25" y="510" width="50" height="20" as="geometry" />
        </mxCell>
        <mxCell id="8u_VZTrY__dgG8JKs_0e-84" value="" style="aspect=fixed;html=1;points=[];align=center;image;fontSize=12;image=img/lib/mscae/Kubernetes_Services.svg;dashed=1;strokeColor=#000000;" vertex="1" parent="1">
          <mxGeometry x="129.37" y="606.5" width="36.49" height="27" as="geometry" />
        </mxCell>
        <mxCell id="8u_VZTrY__dgG8JKs_0e-85" value="云服务" style="text;html=1;strokeColor=none;fillColor=none;align=center;verticalAlign=middle;whiteSpace=wrap;rounded=0;" vertex="1" parent="1">
          <mxGeometry x="35" y="610" width="50" height="20" as="geometry" />
        </mxCell>
        <mxCell id="8u_VZTrY__dgG8JKs_0e-86" value="集群环境" style="text;html=1;strokeColor=none;fillColor=none;align=center;verticalAlign=middle;whiteSpace=wrap;rounded=0;" vertex="1" parent="1">
          <mxGeometry x="175" y="610" width="50" height="20" as="geometry" />
        </mxCell>
        <mxCell id="8u_VZTrY__dgG8JKs_0e-87" value="" style="aspect=fixed;html=1;points=[];align=center;image;fontSize=12;image=img/lib/mscae/WebHosting.svg;dashed=1;strokeColor=#000000;" vertex="1" parent="1">
          <mxGeometry x="5" y="605" width="30" height="30" as="geometry" />
        </mxCell>
        <mxCell id="8u_VZTrY__dgG8JKs_0e-88" value="" style="aspect=fixed;html=1;points=[];align=center;image;fontSize=12;image=img/lib/mscae/Shared_Image_Galleries.svg;dashed=1;strokeColor=#000000;" vertex="1" parent="1">
          <mxGeometry x="385" y="605" width="30" height="30" as="geometry" />
        </mxCell>
        <mxCell id="8u_VZTrY__dgG8JKs_0e-89" value="文件存储" style="text;html=1;strokeColor=none;fillColor=none;align=center;verticalAlign=middle;whiteSpace=wrap;rounded=0;" vertex="1" parent="1">
          <mxGeometry x="423.5" y="610" width="57.5" height="20" as="geometry" />
        </mxCell>
        <mxCell id="8u_VZTrY__dgG8JKs_0e-90" value="" style="aspect=fixed;html=1;points=[];align=center;image;fontSize=12;image=img/lib/mscae/App_Service.svg;dashed=1;strokeColor=#000000;" vertex="1" parent="1">
          <mxGeometry x="270" y="605" width="30" height="30" as="geometry" />
        </mxCell>
        <mxCell id="8u_VZTrY__dgG8JKs_0e-91" value="构建环境" style="text;html=1;strokeColor=none;fillColor=none;align=center;verticalAlign=middle;whiteSpace=wrap;rounded=0;" vertex="1" parent="1">
          <mxGeometry x="310" y="610" width="55" height="20" as="geometry" />
        </mxCell>
        <mxCell id="8u_VZTrY__dgG8JKs_0e-92" value="KCRM" style="shape=cube;whiteSpace=wrap;html=1;boundedLbl=1;backgroundOutline=1;darkOpacity=0.05;darkOpacity2=0.1;dashed=1;strokeColor=#d6b656;gradientColor=#ffd966;fillColor=#fff2cc;" vertex="1" parent="1">
          <mxGeometry x="52" y="540" width="72.5" height="50" as="geometry" />
        </mxCell>
        <mxCell id="8u_VZTrY__dgG8JKs_0e-93" value="TOP" style="shape=cube;whiteSpace=wrap;html=1;boundedLbl=1;backgroundOutline=1;darkOpacity=0.05;darkOpacity2=0.1;dashed=1;strokeColor=#d6b656;gradientColor=#ffd966;fillColor=#fff2cc;" vertex="1" parent="1">
          <mxGeometry x="202.5" y="540" width="72.5" height="50" as="geometry" />
        </mxCell>
        <mxCell id="8u_VZTrY__dgG8JKs_0e-94" value="其他" style="shape=cube;whiteSpace=wrap;html=1;boundedLbl=1;backgroundOutline=1;darkOpacity=0.05;darkOpacity2=0.1;dashed=1;strokeColor=#d6b656;gradientColor=#ffd966;fillColor=#fff2cc;" vertex="1" parent="1">
          <mxGeometry x="347.5" y="540" width="72.5" height="50" as="geometry" />
        </mxCell>
        <mxCell id="8u_VZTrY__dgG8JKs_0e-95" value="" style="aspect=fixed;html=1;points=[];align=center;image;fontSize=12;image=img/lib/mscae/VirtualMachineWindows.svg;dashed=1;strokeColor=#000000;" vertex="1" parent="1">
          <mxGeometry x="30" y="-3" width="50" height="46" as="geometry" />
        </mxCell>
        <mxCell id="8u_VZTrY__dgG8JKs_0e-96" value="" style="aspect=fixed;html=1;points=[];align=center;image;fontSize=12;image=img/lib/mscae/Managed_Desktop.svg;dashed=1;strokeColor=#000000;" vertex="1" parent="1">
          <mxGeometry x="152.5" y="2" width="50" height="36" as="geometry" />
        </mxCell>
        <mxCell id="8u_VZTrY__dgG8JKs_0e-97" value="" style="aspect=fixed;html=1;points=[];align=center;image;fontSize=12;image=img/lib/mscae/Mobile_Engagement.svg;dashed=1;strokeColor=#000000;" vertex="1" parent="1">
          <mxGeometry x="269.4" y="-3" width="30.6" height="45" as="geometry" />
        </mxCell>
        <mxCell id="8u_VZTrY__dgG8JKs_0e-98" value="" style="aspect=fixed;html=1;points=[];align=center;image;fontSize=12;image=img/lib/mscae/App_Service_Mobile_App.svg;dashed=1;strokeColor=#000000;" vertex="1" parent="1">
          <mxGeometry x="392.7" y="-1.7699999999999818" width="29.6" height="43.53" as="geometry" />
        </mxCell>
        <mxCell id="8u_VZTrY__dgG8JKs_0e-99" value="" style="aspect=fixed;html=1;points=[];align=center;image;fontSize=12;image=img/lib/mscae/Intune_App_Protection.svg;dashed=1;strokeColor=#000000;" vertex="1" parent="1">
          <mxGeometry x="490" y="1.7600000000000016" width="50" height="40" as="geometry" />
        </mxCell>
        <mxCell id="8u_VZTrY__dgG8JKs_0e-100" value="JOB" style="rounded=0;whiteSpace=wrap;html=1;dashed=1;strokeColor=#10739e;fillColor=#b1ddf0;" vertex="1" parent="1">
          <mxGeometry x="455" y="255" width="25" height="150" as="geometry" />
        </mxCell>
        <mxCell id="8u_VZTrY__dgG8JKs_0e-101" value="" style="rounded=1;whiteSpace=wrap;html=1;fontStyle=1;fillColor=#fa6800;strokeColor=#C73500;fontColor=#ffffff;" vertex="1" parent="1">
          <mxGeometry x="250" y="270" width="90" height="60" as="geometry" />
        </mxCell>
        <mxCell id="8u_VZTrY__dgG8JKs_0e-102" value="" style="rounded=1;whiteSpace=wrap;html=1;fontStyle=1;fillColor=#fa6800;strokeColor=#C73500;fontColor=#ffffff;" vertex="1" parent="1">
          <mxGeometry x="355" y="270" width="90" height="60" as="geometry" />
        </mxCell>
        <mxCell id="8u_VZTrY__dgG8JKs_0e-103" value="" style="rounded=1;whiteSpace=wrap;html=1;fontStyle=1;fillColor=#fa6800;strokeColor=#C73500;fontColor=#ffffff;" vertex="1" parent="1">
          <mxGeometry x="147" y="270" width="90" height="60" as="geometry" />
        </mxCell>
        <mxCell id="8u_VZTrY__dgG8JKs_0e-104" value="" style="rounded=1;whiteSpace=wrap;html=1;fontStyle=1;fillColor=#fa6800;strokeColor=#C73500;fontColor=#ffffff;" vertex="1" parent="1">
          <mxGeometry x="355.45" y="345" width="90" height="60" as="geometry" />
        </mxCell>
        <mxCell id="8u_VZTrY__dgG8JKs_0e-105" value="" style="rounded=1;whiteSpace=wrap;html=1;fontStyle=1;fillColor=#fa6800;strokeColor=#C73500;fontColor=#ffffff;" vertex="1" parent="1">
          <mxGeometry x="250" y="345" width="90" height="60" as="geometry" />
        </mxCell>
        <mxCell id="8u_VZTrY__dgG8JKs_0e-106" value="" style="rounded=1;whiteSpace=wrap;html=1;fontStyle=1;fillColor=#fa6800;strokeColor=#C73500;fontColor=#ffffff;" vertex="1" parent="1">
          <mxGeometry x="147" y="345" width="90" height="60" as="geometry" />
        </mxCell>
        <mxCell id="8u_VZTrY__dgG8JKs_0e-107" value="" style="rounded=1;whiteSpace=wrap;html=1;fontStyle=1;fillColor=#fa6800;strokeColor=#C73500;fontColor=#ffffff;" vertex="1" parent="1">
          <mxGeometry x="39.370000000000005" y="345" width="90" height="60" as="geometry" />
        </mxCell>
        <mxCell id="8u_VZTrY__dgG8JKs_0e-108" value="" style="group" vertex="1" connectable="0" parent="1">
          <mxGeometry x="45" y="273.75" width="80" height="50" as="geometry" />
        </mxCell>
        <mxCell id="8u_VZTrY__dgG8JKs_0e-109" value="行为" style="rounded=1;whiteSpace=wrap;html=1;fillColor=#e51400;strokeColor=#B20000;fontColor=#ffffff;" vertex="1" parent="8u_VZTrY__dgG8JKs_0e-108">
          <mxGeometry x="40" y="3.75" width="40" height="22.5" as="geometry" />
        </mxCell>
        <mxCell id="8u_VZTrY__dgG8JKs_0e-110" value="其他" style="rounded=1;whiteSpace=wrap;html=1;fillColor=#e51400;strokeColor=#B20000;fontColor=#ffffff;" vertex="1" parent="8u_VZTrY__dgG8JKs_0e-108">
          <mxGeometry x="40" y="30" width="40" height="20" as="geometry" />
        </mxCell>
        <mxCell id="8u_VZTrY__dgG8JKs_0e-111" value="&lt;font color=&quot;#ffffff&quot;&gt;课程&lt;/font&gt;" style="text;html=1;fillColor=none;align=center;verticalAlign=middle;whiteSpace=wrap;rounded=0;strokeColor=#000000;dashed=1;" vertex="1" parent="8u_VZTrY__dgG8JKs_0e-108">
          <mxGeometry width="35" height="26.25" as="geometry" />
        </mxCell>
        <mxCell id="8u_VZTrY__dgG8JKs_0e-112" value="" style="group" vertex="1" connectable="0" parent="1">
          <mxGeometry x="45" y="350" width="80" height="50" as="geometry" />
        </mxCell>
        <mxCell id="8u_VZTrY__dgG8JKs_0e-113" value="&lt;font color=&quot;#ffffff&quot;&gt;订单&lt;/font&gt;" style="text;html=1;fillColor=none;align=center;verticalAlign=middle;whiteSpace=wrap;rounded=0;strokeColor=#000000;dashed=1;" vertex="1" parent="8u_VZTrY__dgG8JKs_0e-112">
          <mxGeometry width="35" height="26.25" as="geometry" />
        </mxCell>
        <mxCell id="8u_VZTrY__dgG8JKs_0e-114" value="能力" style="rounded=1;whiteSpace=wrap;html=1;fillColor=#e51400;strokeColor=#B20000;fontColor=#ffffff;" vertex="1" parent="1">
          <mxGeometry x="43.5" y="380" width="40" height="20" as="geometry" />
        </mxCell>
        <mxCell id="8u_VZTrY__dgG8JKs_0e-115" value="行为" style="rounded=1;whiteSpace=wrap;html=1;fillColor=#e51400;strokeColor=#B20000;fontColor=#ffffff;" vertex="1" parent="1">
          <mxGeometry x="84.5" y="350" width="40" height="22.5" as="geometry" />
        </mxCell>
        <mxCell id="8u_VZTrY__dgG8JKs_0e-116" value="其他" style="rounded=1;whiteSpace=wrap;html=1;fillColor=#e51400;strokeColor=#B20000;fontColor=#ffffff;" vertex="1" parent="1">
          <mxGeometry x="85" y="380" width="40" height="20" as="geometry" />
        </mxCell>
        <mxCell id="8u_VZTrY__dgG8JKs_0e-117" value="行为" style="rounded=1;whiteSpace=wrap;html=1;fillColor=#e51400;strokeColor=#B20000;fontColor=#ffffff;" vertex="1" parent="1">
          <mxGeometry x="192.5" y="350.5" width="40" height="22.5" as="geometry" />
        </mxCell>
        <mxCell id="8u_VZTrY__dgG8JKs_0e-118" value="" style="group" vertex="1" connectable="0" parent="1">
          <mxGeometry x="150" y="350" width="80" height="50" as="geometry" />
        </mxCell>
        <mxCell id="8u_VZTrY__dgG8JKs_0e-119" value="&lt;font color=&quot;#ffffff&quot;&gt;优惠&lt;/font&gt;" style="text;html=1;fillColor=none;align=center;verticalAlign=middle;whiteSpace=wrap;rounded=0;strokeColor=#000000;dashed=1;" vertex="1" parent="8u_VZTrY__dgG8JKs_0e-118">
          <mxGeometry width="35" height="26.25" as="geometry" />
        </mxCell>
        <mxCell id="8u_VZTrY__dgG8JKs_0e-120" value="能力" style="rounded=1;whiteSpace=wrap;html=1;fillColor=#e51400;strokeColor=#B20000;fontColor=#ffffff;" vertex="1" parent="1">
          <mxGeometry x="150" y="380" width="40" height="20" as="geometry" />
        </mxCell>
        <mxCell id="8u_VZTrY__dgG8JKs_0e-121" value="其他" style="rounded=1;whiteSpace=wrap;html=1;fillColor=#e51400;strokeColor=#B20000;fontColor=#ffffff;" vertex="1" parent="1">
          <mxGeometry x="192.5" y="380" width="40" height="20" as="geometry" />
        </mxCell>
        <mxCell id="8u_VZTrY__dgG8JKs_0e-122" value="" style="group" vertex="1" connectable="0" parent="1">
          <mxGeometry x="150" y="275" width="80" height="50" as="geometry" />
        </mxCell>
        <mxCell id="8u_VZTrY__dgG8JKs_0e-123" value="&lt;font color=&quot;#ffffff&quot;&gt;班级&lt;/font&gt;" style="text;html=1;fillColor=none;align=center;verticalAlign=middle;whiteSpace=wrap;rounded=0;strokeColor=#000000;dashed=1;" vertex="1" parent="8u_VZTrY__dgG8JKs_0e-122">
          <mxGeometry width="35" height="26.25" as="geometry" />
        </mxCell>
        <mxCell id="8u_VZTrY__dgG8JKs_0e-124" value="" style="group" vertex="1" connectable="0" parent="1">
          <mxGeometry x="255" y="277" width="80" height="50" as="geometry" />
        </mxCell>
        <mxCell id="8u_VZTrY__dgG8JKs_0e-125" value="&lt;font color=&quot;#ffffff&quot;&gt;教室&lt;/font&gt;" style="text;html=1;fillColor=none;align=center;verticalAlign=middle;whiteSpace=wrap;rounded=0;strokeColor=#000000;dashed=1;" vertex="1" parent="8u_VZTrY__dgG8JKs_0e-124">
          <mxGeometry width="35" height="26.25" as="geometry" />
        </mxCell>
        <mxCell id="8u_VZTrY__dgG8JKs_0e-126" value="" style="group" vertex="1" connectable="0" parent="1">
          <mxGeometry x="360.45" y="277.5" width="80" height="50" as="geometry" />
        </mxCell>
        <mxCell id="8u_VZTrY__dgG8JKs_0e-127" value="&lt;font color=&quot;#ffffff&quot;&gt;学员&lt;/font&gt;" style="text;html=1;fillColor=none;align=center;verticalAlign=middle;whiteSpace=wrap;rounded=0;strokeColor=#000000;dashed=1;" vertex="1" parent="8u_VZTrY__dgG8JKs_0e-126">
          <mxGeometry width="35" height="26.25" as="geometry" />
        </mxCell>
        <mxCell id="8u_VZTrY__dgG8JKs_0e-128" value="" style="group" vertex="1" connectable="0" parent="1">
          <mxGeometry x="360.45" y="350" width="80" height="50" as="geometry" />
        </mxCell>
        <mxCell id="8u_VZTrY__dgG8JKs_0e-129" value="&lt;font color=&quot;#ffffff&quot;&gt;系统&lt;/font&gt;" style="text;html=1;fillColor=none;align=center;verticalAlign=middle;whiteSpace=wrap;rounded=0;strokeColor=#000000;dashed=1;" vertex="1" parent="8u_VZTrY__dgG8JKs_0e-128">
          <mxGeometry width="35" height="26.25" as="geometry" />
        </mxCell>
        <mxCell id="8u_VZTrY__dgG8JKs_0e-130" value="" style="group" vertex="1" connectable="0" parent="1">
          <mxGeometry x="255" y="350.5" width="80" height="50" as="geometry" />
        </mxCell>
        <mxCell id="8u_VZTrY__dgG8JKs_0e-131" value="&lt;font color=&quot;#ffffff&quot;&gt;员工&lt;/font&gt;" style="text;html=1;fillColor=none;align=center;verticalAlign=middle;whiteSpace=wrap;rounded=0;strokeColor=#000000;dashed=1;" vertex="1" parent="8u_VZTrY__dgG8JKs_0e-130">
          <mxGeometry width="35" height="26.25" as="geometry" />
        </mxCell>
        <mxCell id="8u_VZTrY__dgG8JKs_0e-132" value="行为" style="rounded=1;whiteSpace=wrap;html=1;fillColor=#e51400;strokeColor=#B20000;fontColor=#ffffff;" vertex="1" parent="1">
          <mxGeometry x="190" y="277.5" width="40" height="22.5" as="geometry" />
        </mxCell>
        <mxCell id="8u_VZTrY__dgG8JKs_0e-133" value="其他" style="rounded=1;whiteSpace=wrap;html=1;fillColor=#e51400;strokeColor=#B20000;fontColor=#ffffff;" vertex="1" parent="1">
          <mxGeometry x="192.5" y="307" width="40" height="20" as="geometry" />
        </mxCell>
        <mxCell id="8u_VZTrY__dgG8JKs_0e-134" value="能力" style="rounded=1;whiteSpace=wrap;html=1;fillColor=#e51400;strokeColor=#B20000;fontColor=#ffffff;" vertex="1" parent="1">
          <mxGeometry x="150" y="305" width="40" height="20" as="geometry" />
        </mxCell>
        <mxCell id="8u_VZTrY__dgG8JKs_0e-135" value="行为" style="rounded=1;whiteSpace=wrap;html=1;fillColor=#e51400;strokeColor=#B20000;fontColor=#ffffff;" vertex="1" parent="1">
          <mxGeometry x="295" y="350.5" width="40" height="22.5" as="geometry" />
        </mxCell>
        <mxCell id="8u_VZTrY__dgG8JKs_0e-136" value="能力" style="rounded=1;whiteSpace=wrap;html=1;fillColor=#e51400;strokeColor=#B20000;fontColor=#ffffff;" vertex="1" parent="1">
          <mxGeometry x="251.01" y="380" width="40" height="20" as="geometry" />
        </mxCell>
        <mxCell id="8u_VZTrY__dgG8JKs_0e-137" value="其他" style="rounded=1;whiteSpace=wrap;html=1;fillColor=#e51400;strokeColor=#B20000;fontColor=#ffffff;" vertex="1" parent="1">
          <mxGeometry x="295.45" y="380.5" width="40" height="20" as="geometry" />
        </mxCell>
        <mxCell id="8u_VZTrY__dgG8JKs_0e-138" value="行为" style="rounded=1;whiteSpace=wrap;html=1;fillColor=#e51400;strokeColor=#B20000;fontColor=#ffffff;" vertex="1" parent="1">
          <mxGeometry x="295" y="277.5" width="40" height="22.5" as="geometry" />
        </mxCell>
        <mxCell id="8u_VZTrY__dgG8JKs_0e-139" value="行为" style="rounded=1;whiteSpace=wrap;html=1;fillColor=#e51400;strokeColor=#B20000;fontColor=#ffffff;" vertex="1" parent="1">
          <mxGeometry x="400.45" y="277.5" width="40" height="22.5" as="geometry" />
        </mxCell>
        <mxCell id="8u_VZTrY__dgG8JKs_0e-140" value="能力" style="rounded=1;whiteSpace=wrap;html=1;fillColor=#e51400;strokeColor=#B20000;fontColor=#ffffff;" vertex="1" parent="1">
          <mxGeometry x="251.01" y="307" width="40" height="20" as="geometry" />
        </mxCell>
        <mxCell id="8u_VZTrY__dgG8JKs_0e-141" value="其他" style="rounded=1;whiteSpace=wrap;html=1;fillColor=#e51400;strokeColor=#B20000;fontColor=#ffffff;" vertex="1" parent="1">
          <mxGeometry x="295.45" y="307" width="40" height="20" as="geometry" />
        </mxCell>
        <mxCell id="8u_VZTrY__dgG8JKs_0e-142" value="能力" style="rounded=1;whiteSpace=wrap;html=1;fillColor=#e51400;strokeColor=#B20000;fontColor=#ffffff;" vertex="1" parent="1">
          <mxGeometry x="357.95" y="307.5" width="40" height="20" as="geometry" />
        </mxCell>
        <mxCell id="8u_VZTrY__dgG8JKs_0e-143" value="其他" style="rounded=1;whiteSpace=wrap;html=1;fillColor=#e51400;strokeColor=#B20000;fontColor=#ffffff;" vertex="1" parent="1">
          <mxGeometry x="400.45" y="307.5" width="40" height="20" as="geometry" />
        </mxCell>
        <mxCell id="8u_VZTrY__dgG8JKs_0e-144" value="行为" style="rounded=1;whiteSpace=wrap;html=1;fillColor=#e51400;strokeColor=#B20000;fontColor=#ffffff;" vertex="1" parent="1">
          <mxGeometry x="400.45" y="350.5" width="40" height="22.5" as="geometry" />
        </mxCell>
        <mxCell id="8u_VZTrY__dgG8JKs_0e-145" value="能力" style="rounded=1;whiteSpace=wrap;html=1;fillColor=#e51400;strokeColor=#B20000;fontColor=#ffffff;" vertex="1" parent="1">
          <mxGeometry x="357.95" y="380.5" width="40" height="20" as="geometry" />
        </mxCell>
        <mxCell id="8u_VZTrY__dgG8JKs_0e-146" value="其他" style="rounded=1;whiteSpace=wrap;html=1;fillColor=#e51400;strokeColor=#B20000;fontColor=#ffffff;" vertex="1" parent="1">
          <mxGeometry x="400.45" y="380.5" width="40" height="20" as="geometry" />
        </mxCell>
        <mxCell id="8u_VZTrY__dgG8JKs_0e-147" value="" style="aspect=fixed;html=1;points=[];align=center;image;fontSize=12;image=img/lib/azure2/databases/Elastic_Job_Agents.svg;dashed=1;strokeColor=#000000;" vertex="1" parent="1">
          <mxGeometry x="458" y="265" width="19" height="19" as="geometry" />
        </mxCell>
      </root>
    </mxGraphModel>
  </diagram>
</mxfile>
